<?xml version="1.0" encoding="UTF-8"?>
<!DOCTYPE score-partwise PUBLIC "-//Recordare//DTD MusicXML 2.0 Partwise//EN"
  "http://www.musicxml.org/dtds/partwise.dtd">
<score-partwise version="2.0">
  <work>
    <work-title>Polka</work-title>
  </work>
  <identification>
    <creator type="composer">Glinka</creator>
    <rights/>
    <encoding>
      <software>Noteflight version 0.3.1</software>
      <encoding-date>2011-09-20</encoding-date>
      <supports attribute="new-system" element="print" type="no" value="no"/>
      <supports attribute="new-page" element="print" type="no" value="no"/>
    </encoding>
  </identification>
  <defaults>
    <scaling>
      <millimeters>2.1166666679999997</millimeters>
      <tenths>10</tenths>
    </scaling>
    <page-layout>
      <page-height>1320</page-height>
      <page-width>1020</page-width>
      <page-margins type="both">
        <left-margin>59.583333333333336</left-margin>
        <right-margin>56.66666666666667</right-margin>
        <top-margin>96.66666666666667</top-margin>
        <bottom-margin>80</bottom-margin>
      </page-margins>
    </page-layout>
    <system-layout>
      <system-margins>
        <left-margin>59.583333333333336</left-margin>
        <right-margin>26.666666666666668</right-margin>
      </system-margins>
      <system-distance>92.5</system-distance>
      <top-system-distance>145.83333333333334</top-system-distance>
    </system-layout>
    <staff-layout>
      <staff-distance>55</staff-distance>
    </staff-layout>
  </defaults>
  <credit page="1">
    <credit-words font-size="24" default-x="510" default-y="1260" justify="center" valign="top">Polka</credit-words>
  </credit>
  <credit page="1">
    <credit-words font-size="12" default-x="918" default-y="1210" justify="right" valign="top">Glinka</credit-words>
  </credit>
  <part-list>
    <score-part id="P1">
      <part-name>Piano</part-name>
      <part-abbreviation>Pno</part-abbreviation>
      <score-instrument id="P1I1">
        <instrument-name>Piano</instrument-name>
      </score-instrument>
      <midi-instrument id="P1I1">
        <midi-channel>1</midi-channel>
        <midi-program>1</midi-program>
      </midi-instrument>
    </score-part>
  </part-list>
  <part id="P1">
    <measure number="1">
      <attributes>
        <divisions>64</divisions>
        <key>
          <fifths>-1</fifths>
          <mode>major</mode>
        </key>
        <time>
          <beats>2</beats>
          <beat-type>4</beat-type>
        </time>
        <staves>2</staves>
        <clef number="1">
          <sign>G</sign>
          <line>2</line>
        </clef>
      </attributes>
      <direction placement="above">
        <direction-type>
          <metronome>
            <beat-unit>quarter</beat-unit>
            <per-minute>120</per-minute>
          </metronome>
        </direction-type>
        <sound tempo="120"/>
      </direction>
      <direction placement="above">
        <direction-type>
          <metronome>
            <beat-unit>quarter</beat-unit>
            <per-minute>120</per-minute>
          </metronome>
        </direction-type>
        <sound tempo="120"/>
      </direction>
      <note>
        <pitch>
          <step>D</step>
          <octave>5</octave>
        </pitch>
        <duration>32</duration>
        <voice>1</voice>
        <type>eighth</type>
        <notehead>normal</notehead>
        <staff>1</staff>
        <beam number="1">begin</beam>
      </note>
      <note>
        <pitch>
          <step>F</step>
          <octave>5</octave>
        </pitch>
        <duration>16</duration>
        <voice>1</voice>
        <type>16th</type>
        <notehead>normal</notehead>
        <staff>1</staff>
        <beam number="1">continue</beam>
      </note>
      <note>
        <pitch>
          <step>E</step>
          <octave>5</octave>
        </pitch>
        <duration>16</duration>
        <voice>1</voice>
        <type>16th</type>
        <notehead>normal</notehead>
        <staff>1</staff>
        <beam number="1">end</beam>
      </note>
      <note>
        <pitch>
          <step>D</step>
          <octave>5</octave>
        </pitch>
        <duration>32</duration>
        <voice>1</voice>
        <type>eighth</type>
        <notehead>normal</notehead>
        <staff>1</staff>
        <beam number="1">begin</beam>
        <notations>
          <articulations>
            <staccatissimo/>
          </articulations>
        </notations>
      </note>
      <note>
        <pitch>
          <step>D</step>
          <octave>5</octave>
        </pitch>
        <duration>32</duration>
        <voice>1</voice>
        <type>eighth</type>
        <notehead>normal</notehead>
        <staff>1</staff>
        <beam number="1">end</beam>
        <notations>
          <articulations>
            <staccatissimo/>
          </articulations>
        </notations>
      </note>
      <backup>
        <duration>128</duration>
      </backup>
      <attributes>
        <clef number="2">
          <sign>F</sign>
          <line>4</line>
        </clef>
      </attributes>
      <note>
        <pitch>
          <step>D</step>
          <octave>3</octave>
        </pitch>
        <duration>32</duration>
        <voice>3</voice>
        <type>eighth</type>
        <notehead>normal</notehead>
        <staff>2</staff>
        <beam number="1">begin</beam>
        <notations>
          <articulations>
            <staccatissimo/>
          </articulations>
        </notations>
      </note>
      <note>
        <pitch>
          <step>F</step>
          <octave>3</octave>
        </pitch>
        <duration>32</duration>
        <voice>3</voice>
        <type>eighth</type>
        <notehead>normal</notehead>
        <staff>2</staff>
        <beam number="1">end</beam>
        <notations>
          <articulations>
            <staccatissimo/>
          </articulations>
        </notations>
      </note>
      <note>
        <chord/>
        <pitch>
          <step>A</step>
          <octave>3</octave>
        </pitch>
        <duration>32</duration>
        <voice>3</voice>
        <type>eighth</type>
        <notehead>normal</notehead>
        <staff>2</staff>
        <beam number="1">end</beam>
        <notations>
          <articulations>
            <staccatissimo/>
          </articulations>
        </notations>
      </note>
      <note>
        <pitch>
          <step>D</step>
          <octave>3</octave>
        </pitch>
        <duration>32</duration>
        <voice>3</voice>
        <type>eighth</type>
        <notehead>normal</notehead>
        <staff>2</staff>
        <beam number="1">begin</beam>
        <notations>
          <articulations>
            <staccatissimo/>
          </articulations>
        </notations>
      </note>
      <note>
        <pitch>
          <step>F</step>
          <octave>3</octave>
        </pitch>
        <duration>32</duration>
        <voice>3</voice>
        <type>eighth</type>
        <notehead>normal</notehead>
        <staff>2</staff>
        <beam number="1">end</beam>
        <notations>
          <articulations>
            <staccatissimo/>
          </articulations>
        </notations>
      </note>
      <note>
        <chord/>
        <pitch>
          <step>A</step>
          <octave>3</octave>
        </pitch>
        <duration>32</duration>
        <voice>3</voice>
        <type>eighth</type>
        <notehead>normal</notehead>
        <staff>2</staff>
        <beam number="1">end</beam>
        <notations>
          <articulations>
            <staccatissimo/>
          </articulations>
        </notations>
      </note>
    </measure>
    <measure number="2">
      <attributes/>
      <note>
        <pitch>
          <step>E</step>
          <octave>5</octave>
        </pitch>
        <duration>32</duration>
        <voice>1</voice>
        <type>eighth</type>
        <notehead>normal</notehead>
        <staff>1</staff>
      </note>
      <note>
        <rest/>
        <duration>32</duration>
        <voice>1</voice>
        <type>eighth</type>
        <staff>1</staff>
      </note>
      <note>
        <pitch>
          <step>E</step>
          <octave>5</octave>
        </pitch>
        <duration>64</duration>
        <voice>1</voice>
        <type>quarter</type>
        <notehead>normal</notehead>
        <staff>1</staff>
        <notations>
          <articulations>
            <accent/>
          </articulations>
        </notations>
      </note>
      <backup>
        <duration>128</duration>
      </backup>
      <attributes/>
      <note>
        <pitch>
          <step>D</step>
          <octave>3</octave>
        </pitch>
        <duration>32</duration>
        <voice>3</voice>
        <type>eighth</type>
        <notehead>normal</notehead>
        <staff>2</staff>
        <beam number="1">begin</beam>
        <notations>
          <articulations>
            <staccatissimo/>
          </articulations>
        </notations>
      </note>
      <note>
        <pitch>
          <step>G</step>
          <octave>3</octave>
        </pitch>
        <duration>32</duration>
        <voice>3</voice>
        <type>eighth</type>
        <notehead>normal</notehead>
        <staff>2</staff>
        <beam number="1">end</beam>
        <notations>
          <articulations>
            <staccatissimo/>
          </articulations>
        </notations>
      </note>
      <note>
        <chord/>
        <pitch>
          <step>B</step>
          <alter>-1</alter>
          <octave>3</octave>
        </pitch>
        <duration>32</duration>
        <voice>3</voice>
        <type>eighth</type>
        <notehead>normal</notehead>
        <staff>2</staff>
        <beam number="1">end</beam>
        <notations>
          <articulations>
            <staccatissimo/>
          </articulations>
        </notations>
      </note>
      <note>
        <pitch>
          <step>D</step>
          <octave>3</octave>
        </pitch>
        <duration>32</duration>
        <voice>3</voice>
        <type>eighth</type>
        <notehead>normal</notehead>
        <staff>2</staff>
        <beam number="1">begin</beam>
        <notations>
          <articulations>
            <staccatissimo/>
          </articulations>
        </notations>
      </note>
      <note>
        <pitch>
          <step>G</step>
          <octave>3</octave>
        </pitch>
        <duration>32</duration>
        <voice>3</voice>
        <type>eighth</type>
        <notehead>normal</notehead>
        <staff>2</staff>
        <beam number="1">end</beam>
        <notations>
          <articulations>
            <staccatissimo/>
          </articulations>
        </notations>
      </note>
      <note>
        <chord/>
        <pitch>
          <step>B</step>
          <alter>-1</alter>
          <octave>3</octave>
        </pitch>
        <duration>32</duration>
        <voice>3</voice>
        <type>eighth</type>
        <notehead>normal</notehead>
        <staff>2</staff>
        <beam number="1">end</beam>
        <notations>
          <articulations>
            <staccatissimo/>
          </articulations>
        </notations>
      </note>
    </measure>
    <measure number="3">
      <attributes/>
      <note>
        <pitch>
          <step>C</step>
          <alter>1</alter>
          <octave>5</octave>
        </pitch>
        <duration>32</duration>
        <voice>1</voice>
        <type>eighth</type>
        <accidental>sharp</accidental>
        <notehead>normal</notehead>
        <staff>1</staff>
        <beam number="1">begin</beam>
        <notations>
          <articulations>
            <tenuto/>
          </articulations>
        </notations>
      </note>
      <note>
        <pitch>
          <step>C</step>
          <alter>1</alter>
          <octave>5</octave>
        </pitch>
        <duration>16</duration>
        <voice>1</voice>
        <type>16th</type>
        <notehead>normal</notehead>
        <staff>1</staff>
        <beam number="1">continue</beam>
      </note>
      <note>
        <pitch>
          <step>B</step>
          <octave>4</octave>
        </pitch>
        <duration>16</duration>
        <voice>1</voice>
        <type>16th</type>
        <accidental>natural</accidental>
        <notehead>normal</notehead>
        <staff>1</staff>
        <beam number="1">end</beam>
      </note>
      <note>
        <pitch>
          <step>A</step>
          <octave>4</octave>
        </pitch>
        <duration>16</duration>
        <voice>1</voice>
        <type>16th</type>
        <notehead>normal</notehead>
        <staff>1</staff>
        <beam number="1">begin</beam>
      </note>
      <note>
        <pitch>
          <step>B</step>
          <octave>4</octave>
        </pitch>
        <duration>16</duration>
        <voice>1</voice>
        <type>16th</type>
        <notehead>normal</notehead>
        <staff>1</staff>
        <beam number="1">continue</beam>
      </note>
      <note>
        <pitch>
          <step>C</step>
          <alter>1</alter>
          <octave>5</octave>
        </pitch>
        <duration>16</duration>
        <voice>1</voice>
        <type>16th</type>
        <notehead>normal</notehead>
        <staff>1</staff>
        <beam number="1">continue</beam>
      </note>
      <note>
        <pitch>
          <step>A</step>
          <octave>4</octave>
        </pitch>
        <duration>16</duration>
        <voice>1</voice>
        <type>16th</type>
        <notehead>normal</notehead>
        <staff>1</staff>
        <beam number="1">end</beam>
      </note>
      <backup>
        <duration>128</duration>
      </backup>
      <attributes/>
      <note>
        <pitch>
          <step>A</step>
          <octave>2</octave>
        </pitch>
        <duration>32</duration>
        <voice>3</voice>
        <type>eighth</type>
        <notehead>normal</notehead>
        <staff>2</staff>
        <beam number="1">begin</beam>
        <notations>
          <articulations>
            <staccatissimo/>
          </articulations>
        </notations>
      </note>
      <note>
        <pitch>
          <step>E</step>
          <octave>3</octave>
        </pitch>
        <duration>32</duration>
        <voice>3</voice>
        <type>eighth</type>
        <notehead>normal</notehead>
        <staff>2</staff>
        <beam number="1">end</beam>
        <notations>
          <articulations>
            <staccatissimo/>
          </articulations>
        </notations>
      </note>
      <note>
        <chord/>
        <pitch>
          <step>G</step>
          <octave>3</octave>
        </pitch>
        <duration>32</duration>
        <voice>3</voice>
        <type>eighth</type>
        <notehead>normal</notehead>
        <staff>2</staff>
        <beam number="1">end</beam>
        <notations>
          <articulations>
            <staccatissimo/>
          </articulations>
        </notations>
      </note>
      <note>
        <chord/>
        <pitch>
          <step>A</step>
          <octave>3</octave>
        </pitch>
        <duration>32</duration>
        <voice>3</voice>
        <type>eighth</type>
        <notehead>normal</notehead>
        <staff>2</staff>
        <beam number="1">end</beam>
        <notations>
          <articulations>
            <staccatissimo/>
          </articulations>
        </notations>
      </note>
      <note>
        <pitch>
          <step>A</step>
          <octave>2</octave>
        </pitch>
        <duration>32</duration>
        <voice>3</voice>
        <type>eighth</type>
        <notehead>normal</notehead>
        <staff>2</staff>
        <beam number="1">begin</beam>
      </note>
      <note>
        <pitch>
          <step>E</step>
          <octave>3</octave>
        </pitch>
        <duration>32</duration>
        <voice>3</voice>
        <type>eighth</type>
        <notehead>normal</notehead>
        <staff>2</staff>
        <beam number="1">end</beam>
        <notations>
          <articulations>
            <staccatissimo/>
          </articulations>
        </notations>
      </note>
      <note>
        <chord/>
        <pitch>
          <step>G</step>
          <octave>3</octave>
        </pitch>
        <duration>32</duration>
        <voice>3</voice>
        <type>eighth</type>
        <notehead>normal</notehead>
        <staff>2</staff>
        <beam number="1">end</beam>
        <notations>
          <articulations>
            <staccatissimo/>
          </articulations>
        </notations>
      </note>
      <note>
        <chord/>
        <pitch>
          <step>A</step>
          <octave>3</octave>
        </pitch>
        <duration>32</duration>
        <voice>3</voice>
        <type>eighth</type>
        <notehead>normal</notehead>
        <staff>2</staff>
        <beam number="1">end</beam>
        <notations>
          <articulations>
            <staccatissimo/>
          </articulations>
        </notations>
      </note>
    </measure>
    <measure number="4">
      <attributes/>
      <note>
        <pitch>
          <step>D</step>
          <octave>5</octave>
        </pitch>
        <duration>32</duration>
        <voice>1</voice>
        <type>eighth</type>
        <notehead>normal</notehead>
        <staff>1</staff>
        <notations>
          <articulations>
            <staccatissimo/>
          </articulations>
        </notations>
      </note>
      <note>
        <rest/>
        <duration>32</duration>
        <voice>1</voice>
        <type>eighth</type>
        <staff>1</staff>
      </note>
      <note>
        <pitch>
          <step>D</step>
          <octave>5</octave>
        </pitch>
        <duration>64</duration>
        <voice>1</voice>
        <type>quarter</type>
        <notehead>normal</notehead>
        <staff>1</staff>
        <notations>
          <articulations>
            <accent/>
          </articulations>
        </notations>
      </note>
      <backup>
        <duration>128</duration>
      </backup>
      <attributes/>
      <note>
        <pitch>
          <step>D</step>
          <octave>3</octave>
        </pitch>
        <duration>32</duration>
        <voice>3</voice>
        <type>eighth</type>
        <notehead>normal</notehead>
        <staff>2</staff>
        <beam number="1">begin</beam>
        <notations>
          <articulations>
            <staccatissimo/>
          </articulations>
        </notations>
      </note>
      <note>
        <pitch>
          <step>F</step>
          <octave>3</octave>
        </pitch>
        <duration>32</duration>
        <voice>3</voice>
        <type>eighth</type>
        <notehead>normal</notehead>
        <staff>2</staff>
        <beam number="1">end</beam>
        <notations>
          <articulations>
            <staccatissimo/>
          </articulations>
        </notations>
      </note>
      <note>
        <chord/>
        <pitch>
          <step>A</step>
          <octave>3</octave>
        </pitch>
        <duration>32</duration>
        <voice>3</voice>
        <type>eighth</type>
        <notehead>normal</notehead>
        <staff>2</staff>
        <beam number="1">end</beam>
        <notations>
          <articulations>
            <staccatissimo/>
          </articulations>
        </notations>
      </note>
      <note>
        <pitch>
          <step>D</step>
          <octave>3</octave>
        </pitch>
        <duration>32</duration>
        <voice>3</voice>
        <type>eighth</type>
        <notehead>normal</notehead>
        <staff>2</staff>
        <beam number="1">begin</beam>
        <notations>
          <articulations>
            <staccatissimo/>
          </articulations>
        </notations>
      </note>
      <note>
        <pitch>
          <step>F</step>
          <octave>3</octave>
        </pitch>
        <duration>32</duration>
        <voice>3</voice>
        <type>eighth</type>
        <notehead>normal</notehead>
        <staff>2</staff>
        <beam number="1">end</beam>
        <notations>
          <articulations>
            <staccatissimo/>
          </articulations>
        </notations>
      </note>
      <note>
        <chord/>
        <pitch>
          <step>A</step>
          <octave>3</octave>
        </pitch>
        <duration>32</duration>
        <voice>3</voice>
        <type>eighth</type>
        <notehead>normal</notehead>
        <staff>2</staff>
        <beam number="1">end</beam>
        <notations>
          <articulations>
            <staccatissimo/>
          </articulations>
        </notations>
      </note>
    </measure>
    <measure number="5">
      <attributes/>
      <note>
        <pitch>
          <step>D</step>
          <octave>5</octave>
        </pitch>
        <duration>32</duration>
        <voice>1</voice>
        <type>eighth</type>
        <notehead>normal</notehead>
        <staff>1</staff>
        <beam number="1">begin</beam>
        <notations>
          <articulations>
            <tenuto/>
          </articulations>
        </notations>
      </note>
      <note>
        <pitch>
          <step>F</step>
          <octave>5</octave>
        </pitch>
        <duration>16</duration>
        <voice>1</voice>
        <type>16th</type>
        <notehead>normal</notehead>
        <staff>1</staff>
        <beam number="1">continue</beam>
      </note>
      <note>
        <pitch>
          <step>E</step>
          <octave>5</octave>
        </pitch>
        <duration>16</duration>
        <voice>1</voice>
        <type>16th</type>
        <notehead>normal</notehead>
        <staff>1</staff>
        <beam number="1">end</beam>
      </note>
      <note>
        <pitch>
          <step>D</step>
          <octave>5</octave>
        </pitch>
        <duration>16</duration>
        <voice>1</voice>
        <type>16th</type>
        <notehead>normal</notehead>
        <staff>1</staff>
        <beam number="1">begin</beam>
      </note>
      <note>
        <pitch>
          <step>E</step>
          <octave>5</octave>
        </pitch>
        <duration>16</duration>
        <voice>1</voice>
        <type>16th</type>
        <notehead>normal</notehead>
        <staff>1</staff>
        <beam number="1">continue</beam>
      </note>
      <note>
        <pitch>
          <step>F</step>
          <octave>5</octave>
        </pitch>
        <duration>16</duration>
        <voice>1</voice>
        <type>16th</type>
        <notehead>normal</notehead>
        <staff>1</staff>
        <beam number="1">continue</beam>
      </note>
      <note>
        <pitch>
          <step>D</step>
          <octave>5</octave>
        </pitch>
        <duration>16</duration>
        <voice>1</voice>
        <type>16th</type>
        <notehead>normal</notehead>
        <staff>1</staff>
        <beam number="1">end</beam>
      </note>
      <backup>
        <duration>128</duration>
      </backup>
      <attributes/>
      <note>
        <pitch>
          <step>D</step>
          <octave>3</octave>
        </pitch>
        <duration>32</duration>
        <voice>3</voice>
        <type>eighth</type>
        <notehead>normal</notehead>
        <staff>2</staff>
        <beam number="1">begin</beam>
        <notations>
          <articulations>
            <staccatissimo/>
          </articulations>
        </notations>
      </note>
      <note>
        <pitch>
          <step>F</step>
          <octave>3</octave>
        </pitch>
        <duration>32</duration>
        <voice>3</voice>
        <type>eighth</type>
        <notehead>normal</notehead>
        <staff>2</staff>
        <beam number="1">end</beam>
        <notations>
          <articulations>
            <staccatissimo/>
          </articulations>
        </notations>
      </note>
      <note>
        <chord/>
        <pitch>
          <step>A</step>
          <octave>3</octave>
        </pitch>
        <duration>32</duration>
        <voice>3</voice>
        <type>eighth</type>
        <notehead>normal</notehead>
        <staff>2</staff>
        <beam number="1">end</beam>
        <notations>
          <articulations>
            <staccatissimo/>
          </articulations>
        </notations>
      </note>
      <note>
        <pitch>
          <step>D</step>
          <octave>3</octave>
        </pitch>
        <duration>32</duration>
        <voice>3</voice>
        <type>eighth</type>
        <notehead>normal</notehead>
        <staff>2</staff>
        <beam number="1">begin</beam>
        <notations>
          <articulations>
            <staccatissimo/>
          </articulations>
        </notations>
      </note>
      <note>
        <pitch>
          <step>F</step>
          <octave>3</octave>
        </pitch>
        <duration>32</duration>
        <voice>3</voice>
        <type>eighth</type>
        <notehead>normal</notehead>
        <staff>2</staff>
        <beam number="1">end</beam>
      </note>
      <note>
        <chord/>
        <pitch>
          <step>A</step>
          <octave>3</octave>
        </pitch>
        <duration>32</duration>
        <voice>3</voice>
        <type>eighth</type>
        <notehead>normal</notehead>
        <staff>2</staff>
        <beam number="1">end</beam>
      </note>
    </measure>
    <measure number="6">
      <attributes/>
      <note>
        <pitch>
          <step>E</step>
          <octave>5</octave>
        </pitch>
        <duration>32</duration>
        <voice>1</voice>
        <type>eighth</type>
        <notehead>normal</notehead>
        <staff>1</staff>
        <beam number="1">begin</beam>
        <notations>
          <articulations>
            <staccatissimo/>
          </articulations>
        </notations>
      </note>
      <note>
        <pitch>
          <step>E</step>
          <octave>5</octave>
        </pitch>
        <duration>32</duration>
        <voice>1</voice>
        <type>eighth</type>
        <notehead>normal</notehead>
        <staff>1</staff>
        <beam number="1">end</beam>
        <notations>
          <articulations>
            <staccatissimo/>
          </articulations>
        </notations>
      </note>
      <note>
        <pitch>
          <step>E</step>
          <octave>5</octave>
        </pitch>
        <duration>64</duration>
        <voice>1</voice>
        <type>quarter</type>
        <notehead>normal</notehead>
        <staff>1</staff>
        <notations>
          <articulations>
            <accent/>
          </articulations>
        </notations>
      </note>
      <backup>
        <duration>128</duration>
      </backup>
      <attributes/>
      <note>
        <pitch>
          <step>D</step>
          <octave>3</octave>
        </pitch>
        <duration>32</duration>
        <voice>3</voice>
        <type>eighth</type>
        <notehead>normal</notehead>
        <staff>2</staff>
        <beam number="1">begin</beam>
        <notations>
          <articulations>
            <staccatissimo/>
          </articulations>
        </notations>
      </note>
      <note>
        <pitch>
          <step>G</step>
          <octave>3</octave>
        </pitch>
        <duration>32</duration>
        <voice>3</voice>
        <type>eighth</type>
        <notehead>normal</notehead>
        <staff>2</staff>
        <beam number="1">end</beam>
        <notations>
          <articulations>
            <staccatissimo/>
          </articulations>
        </notations>
      </note>
      <note>
        <chord/>
        <pitch>
          <step>B</step>
          <alter>-1</alter>
          <octave>3</octave>
        </pitch>
        <duration>32</duration>
        <voice>3</voice>
        <type>eighth</type>
        <notehead>normal</notehead>
        <staff>2</staff>
        <beam number="1">end</beam>
        <notations>
          <articulations>
            <staccatissimo/>
          </articulations>
        </notations>
      </note>
      <note>
        <pitch>
          <step>D</step>
          <octave>3</octave>
        </pitch>
        <duration>32</duration>
        <voice>3</voice>
        <type>eighth</type>
        <notehead>normal</notehead>
        <staff>2</staff>
        <beam number="1">begin</beam>
        <notations>
          <articulations>
            <staccatissimo/>
          </articulations>
        </notations>
      </note>
      <note>
        <pitch>
          <step>G</step>
          <octave>3</octave>
        </pitch>
        <duration>32</duration>
        <voice>3</voice>
        <type>eighth</type>
        <notehead>normal</notehead>
        <staff>2</staff>
        <beam number="1">end</beam>
        <notations>
          <articulations>
            <staccatissimo/>
          </articulations>
        </notations>
      </note>
      <note>
        <chord/>
        <pitch>
          <step>B</step>
          <alter>-1</alter>
          <octave>3</octave>
        </pitch>
        <duration>32</duration>
        <voice>3</voice>
        <type>eighth</type>
        <notehead>normal</notehead>
        <staff>2</staff>
        <beam number="1">end</beam>
        <notations>
          <articulations>
            <staccatissimo/>
          </articulations>
        </notations>
      </note>
    </measure>
    <measure number="7">
      <attributes/>
      <note>
        <pitch>
          <step>C</step>
          <alter>1</alter>
          <octave>5</octave>
        </pitch>
        <duration>32</duration>
        <voice>1</voice>
        <type>eighth</type>
        <accidental>sharp</accidental>
        <notehead>normal</notehead>
        <staff>1</staff>
        <beam number="1">begin</beam>
      </note>
      <note>
        <pitch>
          <step>C</step>
          <alter>1</alter>
          <octave>5</octave>
        </pitch>
        <duration>16</duration>
        <voice>1</voice>
        <type>16th</type>
        <notehead>normal</notehead>
        <staff>1</staff>
        <beam number="1">continue</beam>
      </note>
      <note>
        <pitch>
          <step>B</step>
          <octave>4</octave>
        </pitch>
        <duration>16</duration>
        <voice>1</voice>
        <type>16th</type>
        <accidental>natural</accidental>
        <notehead>normal</notehead>
        <staff>1</staff>
        <beam number="1">end</beam>
      </note>
      <note>
        <pitch>
          <step>A</step>
          <octave>4</octave>
        </pitch>
        <duration>16</duration>
        <voice>1</voice>
        <type>16th</type>
        <notehead>normal</notehead>
        <staff>1</staff>
        <beam number="1">begin</beam>
      </note>
      <note>
        <pitch>
          <step>B</step>
          <octave>4</octave>
        </pitch>
        <duration>16</duration>
        <voice>1</voice>
        <type>16th</type>
        <notehead>normal</notehead>
        <staff>1</staff>
        <beam number="1">continue</beam>
      </note>
      <note>
        <pitch>
          <step>C</step>
          <alter>1</alter>
          <octave>5</octave>
        </pitch>
        <duration>16</duration>
        <voice>1</voice>
        <type>16th</type>
        <notehead>normal</notehead>
        <staff>1</staff>
        <beam number="1">continue</beam>
      </note>
      <note>
        <pitch>
          <step>A</step>
          <octave>4</octave>
        </pitch>
        <duration>16</duration>
        <voice>1</voice>
        <type>16th</type>
        <notehead>normal</notehead>
        <staff>1</staff>
        <beam number="1">end</beam>
      </note>
      <backup>
        <duration>128</duration>
      </backup>
      <attributes/>
      <note>
        <pitch>
          <step>A</step>
          <octave>2</octave>
        </pitch>
        <duration>32</duration>
        <voice>3</voice>
        <type>eighth</type>
        <notehead>normal</notehead>
        <staff>2</staff>
        <beam number="1">begin</beam>
        <notations>
          <articulations>
            <staccatissimo/>
          </articulations>
        </notations>
      </note>
      <note>
        <pitch>
          <step>E</step>
          <octave>3</octave>
        </pitch>
        <duration>32</duration>
        <voice>3</voice>
        <type>eighth</type>
        <notehead>normal</notehead>
        <staff>2</staff>
        <beam number="1">end</beam>
        <notations>
          <articulations>
            <staccatissimo/>
          </articulations>
        </notations>
      </note>
      <note>
        <chord/>
        <pitch>
          <step>G</step>
          <octave>3</octave>
        </pitch>
        <duration>32</duration>
        <voice>3</voice>
        <type>eighth</type>
        <notehead>normal</notehead>
        <staff>2</staff>
        <beam number="1">end</beam>
        <notations>
          <articulations>
            <staccatissimo/>
          </articulations>
        </notations>
      </note>
      <note>
        <chord/>
        <pitch>
          <step>A</step>
          <octave>3</octave>
        </pitch>
        <duration>32</duration>
        <voice>3</voice>
        <type>eighth</type>
        <notehead>normal</notehead>
        <staff>2</staff>
        <beam number="1">end</beam>
        <notations>
          <articulations>
            <staccatissimo/>
          </articulations>
        </notations>
      </note>
      <note>
        <pitch>
          <step>A</step>
          <octave>2</octave>
        </pitch>
        <duration>32</duration>
        <voice>3</voice>
        <type>eighth</type>
        <notehead>normal</notehead>
        <staff>2</staff>
        <beam number="1">begin</beam>
        <notations>
          <articulations>
            <staccatissimo/>
          </articulations>
        </notations>
      </note>
      <note>
        <pitch>
          <step>E</step>
          <octave>3</octave>
        </pitch>
        <duration>32</duration>
        <voice>3</voice>
        <type>eighth</type>
        <notehead>normal</notehead>
        <staff>2</staff>
        <beam number="1">end</beam>
        <notations>
          <articulations>
            <staccatissimo/>
          </articulations>
        </notations>
      </note>
      <note>
        <chord/>
        <pitch>
          <step>G</step>
          <octave>3</octave>
        </pitch>
        <duration>32</duration>
        <voice>3</voice>
        <type>eighth</type>
        <notehead>normal</notehead>
        <staff>2</staff>
        <beam number="1">end</beam>
        <notations>
          <articulations>
            <staccatissimo/>
          </articulations>
        </notations>
      </note>
      <note>
        <chord/>
        <pitch>
          <step>A</step>
          <octave>3</octave>
        </pitch>
        <duration>32</duration>
        <voice>3</voice>
        <type>eighth</type>
        <notehead>normal</notehead>
        <staff>2</staff>
        <beam number="1">end</beam>
        <notations>
          <articulations>
            <staccatissimo/>
          </articulations>
        </notations>
      </note>
    </measure>
    <measure number="8">
      <attributes/>
      <note>
        <pitch>
          <step>D</step>
          <octave>5</octave>
        </pitch>
        <duration>32</duration>
        <voice>1</voice>
        <type>eighth</type>
        <notehead>normal</notehead>
        <staff>1</staff>
      </note>
      <note>
        <rest/>
        <duration>32</duration>
        <voice>1</voice>
        <type>eighth</type>
        <staff>1</staff>
      </note>
      <note>
        <pitch>
          <step>D</step>
          <octave>5</octave>
        </pitch>
        <duration>64</duration>
        <voice>1</voice>
        <type>quarter</type>
        <notehead>normal</notehead>
        <staff>1</staff>
        <notations>
          <articulations>
            <accent/>
          </articulations>
        </notations>
      </note>
      <backup>
        <duration>128</duration>
      </backup>
      <attributes/>
      <note>
        <pitch>
          <step>D</step>
          <octave>3</octave>
        </pitch>
        <duration>32</duration>
        <voice>3</voice>
        <type>eighth</type>
        <notehead>normal</notehead>
        <staff>2</staff>
        <beam number="1">begin</beam>
        <notations>
          <articulations>
            <staccatissimo/>
          </articulations>
        </notations>
      </note>
      <note>
        <pitch>
          <step>F</step>
          <octave>3</octave>
        </pitch>
        <duration>32</duration>
        <voice>3</voice>
        <type>eighth</type>
        <notehead>normal</notehead>
        <staff>2</staff>
        <beam number="1">end</beam>
        <notations>
          <articulations>
            <staccatissimo/>
          </articulations>
        </notations>
      </note>
      <note>
        <chord/>
        <pitch>
          <step>A</step>
          <octave>3</octave>
        </pitch>
        <duration>32</duration>
        <voice>3</voice>
        <type>eighth</type>
        <notehead>normal</notehead>
        <staff>2</staff>
        <beam number="1">end</beam>
        <notations>
          <articulations>
            <staccatissimo/>
          </articulations>
        </notations>
      </note>
      <note>
        <pitch>
          <step>D</step>
          <octave>3</octave>
        </pitch>
        <duration>32</duration>
        <voice>3</voice>
        <type>eighth</type>
        <notehead>normal</notehead>
        <staff>2</staff>
        <beam number="1">begin</beam>
        <notations>
          <articulations>
            <staccatissimo/>
          </articulations>
        </notations>
      </note>
      <note>
        <pitch>
          <step>F</step>
          <octave>3</octave>
        </pitch>
        <duration>32</duration>
        <voice>3</voice>
        <type>eighth</type>
        <notehead>normal</notehead>
        <staff>2</staff>
        <beam number="1">end</beam>
        <notations>
          <articulations>
            <staccatissimo/>
          </articulations>
        </notations>
      </note>
      <note>
        <chord/>
        <pitch>
          <step>A</step>
          <octave>3</octave>
        </pitch>
        <duration>32</duration>
        <voice>3</voice>
        <type>eighth</type>
        <notehead>normal</notehead>
        <staff>2</staff>
        <beam number="1">end</beam>
        <notations>
          <articulations>
            <staccatissimo/>
          </articulations>
        </notations>
      </note>
    </measure>
    <measure number="9">
      <attributes/>
      <note>
        <pitch>
          <step>A</step>
          <octave>5</octave>
        </pitch>
        <duration>32</duration>
        <voice>1</voice>
        <type>eighth</type>
        <notehead>normal</notehead>
        <staff>1</staff>
        <beam number="1">begin</beam>
        <notations>
          <articulations>
            <staccatissimo/>
          </articulations>
        </notations>
      </note>
      <note>
        <pitch>
          <step>A</step>
          <octave>5</octave>
        </pitch>
        <duration>16</duration>
        <voice>1</voice>
        <type>16th</type>
        <notehead>normal</notehead>
        <staff>1</staff>
        <beam number="1">continue</beam>
      </note>
      <note>
        <pitch>
          <step>G</step>
          <octave>5</octave>
        </pitch>
        <duration>16</duration>
        <voice>1</voice>
        <type>16th</type>
        <notehead>normal</notehead>
        <staff>1</staff>
        <beam number="1">end</beam>
      </note>
      <note>
        <pitch>
          <step>F</step>
          <octave>5</octave>
        </pitch>
        <duration>32</duration>
        <voice>1</voice>
        <type>eighth</type>
        <notehead>normal</notehead>
        <staff>1</staff>
        <beam number="1">begin</beam>
        <notations>
          <articulations>
            <staccatissimo/>
          </articulations>
        </notations>
      </note>
      <note>
        <pitch>
          <step>F</step>
          <octave>5</octave>
        </pitch>
        <duration>16</duration>
        <voice>1</voice>
        <type>16th</type>
        <notehead>normal</notehead>
        <staff>1</staff>
        <beam number="1">continue</beam>
      </note>
      <note>
        <pitch>
          <step>A</step>
          <octave>5</octave>
        </pitch>
        <duration>16</duration>
        <voice>1</voice>
        <type>16th</type>
        <notehead>normal</notehead>
        <staff>1</staff>
        <beam number="1">end</beam>
      </note>
      <backup>
        <duration>128</duration>
      </backup>
      <attributes/>
      <note>
        <pitch>
          <step>D</step>
          <octave>3</octave>
        </pitch>
        <duration>32</duration>
        <voice>3</voice>
        <type>eighth</type>
        <notehead>normal</notehead>
        <staff>2</staff>
        <beam number="1">begin</beam>
        <notations>
          <articulations>
            <staccatissimo/>
          </articulations>
        </notations>
      </note>
      <note>
        <pitch>
          <step>A</step>
          <octave>3</octave>
        </pitch>
        <duration>32</duration>
        <voice>3</voice>
        <type>eighth</type>
        <notehead>normal</notehead>
        <staff>2</staff>
        <beam number="1">end</beam>
        <notations>
          <articulations>
            <staccatissimo/>
          </articulations>
        </notations>
      </note>
      <note>
        <chord/>
        <pitch>
          <step>C</step>
          <octave>4</octave>
        </pitch>
        <duration>32</duration>
        <voice>3</voice>
        <type>eighth</type>
        <notehead>normal</notehead>
        <staff>2</staff>
        <beam number="1">end</beam>
        <notations>
          <articulations>
            <staccatissimo/>
          </articulations>
        </notations>
      </note>
      <note>
        <pitch>
          <step>D</step>
          <octave>3</octave>
        </pitch>
        <duration>32</duration>
        <voice>3</voice>
        <type>eighth</type>
        <notehead>normal</notehead>
        <staff>2</staff>
        <beam number="1">begin</beam>
        <notations>
          <articulations>
            <staccatissimo/>
          </articulations>
        </notations>
      </note>
      <note>
        <pitch>
          <step>A</step>
          <octave>3</octave>
        </pitch>
        <duration>32</duration>
        <voice>3</voice>
        <type>eighth</type>
        <notehead>normal</notehead>
        <staff>2</staff>
        <beam number="1">end</beam>
        <notations>
          <articulations>
            <staccatissimo/>
          </articulations>
        </notations>
      </note>
      <note>
        <chord/>
        <pitch>
          <step>C</step>
          <octave>4</octave>
        </pitch>
        <duration>32</duration>
        <voice>3</voice>
        <type>eighth</type>
        <notehead>normal</notehead>
        <staff>2</staff>
        <beam number="1">end</beam>
        <notations>
          <articulations>
            <staccatissimo/>
          </articulations>
        </notations>
      </note>
    </measure>
    <measure number="10">
      <attributes/>
      <note>
        <pitch>
          <step>G</step>
          <octave>5</octave>
        </pitch>
        <duration>32</duration>
        <voice>1</voice>
        <type>eighth</type>
        <notehead>normal</notehead>
        <staff>1</staff>
        <beam number="1">begin</beam>
        <notations>
          <articulations>
            <staccatissimo/>
          </articulations>
        </notations>
      </note>
      <note>
        <pitch>
          <step>G</step>
          <octave>5</octave>
        </pitch>
        <duration>16</duration>
        <voice>1</voice>
        <type>16th</type>
        <notehead>normal</notehead>
        <staff>1</staff>
        <beam number="1">continue</beam>
      </note>
      <note>
        <pitch>
          <step>F</step>
          <octave>5</octave>
        </pitch>
        <duration>16</duration>
        <voice>1</voice>
        <type>16th</type>
        <notehead>normal</notehead>
        <staff>1</staff>
        <beam number="1">end</beam>
      </note>
      <note>
        <pitch>
          <step>E</step>
          <octave>5</octave>
        </pitch>
        <duration>48</duration>
        <voice>1</voice>
        <type>eighth</type>
        <dot/>
        <notehead>normal</notehead>
        <staff>1</staff>
        <beam number="1">begin</beam>
        <notations>
          <articulations>
            <tenuto/>
          </articulations>
        </notations>
      </note>
      <note>
        <pitch>
          <step>G</step>
          <octave>5</octave>
        </pitch>
        <duration>16</duration>
        <voice>1</voice>
        <type>16th</type>
        <notehead>normal</notehead>
        <staff>1</staff>
        <beam number="1">end</beam>
      </note>
      <backup>
        <duration>128</duration>
      </backup>
      <attributes/>
      <note>
        <pitch>
          <step>G</step>
          <octave>3</octave>
        </pitch>
        <duration>32</duration>
        <voice>3</voice>
        <type>eighth</type>
        <notehead>normal</notehead>
        <staff>2</staff>
        <beam number="1">begin</beam>
        <notations>
          <articulations>
            <staccatissimo/>
          </articulations>
        </notations>
      </note>
      <note>
        <pitch>
          <step>B</step>
          <alter>-1</alter>
          <octave>3</octave>
        </pitch>
        <duration>32</duration>
        <voice>3</voice>
        <type>eighth</type>
        <notehead>normal</notehead>
        <staff>2</staff>
        <beam number="1">end</beam>
        <notations>
          <articulations>
            <staccatissimo/>
          </articulations>
        </notations>
      </note>
      <note>
        <chord/>
        <pitch>
          <step>E</step>
          <octave>4</octave>
        </pitch>
        <duration>32</duration>
        <voice>3</voice>
        <type>eighth</type>
        <notehead>normal</notehead>
        <staff>2</staff>
        <beam number="1">end</beam>
        <notations>
          <articulations>
            <staccatissimo/>
          </articulations>
        </notations>
      </note>
      <note>
        <pitch>
          <step>G</step>
          <octave>3</octave>
        </pitch>
        <duration>32</duration>
        <voice>3</voice>
        <type>eighth</type>
        <notehead>normal</notehead>
        <staff>2</staff>
        <beam number="1">begin</beam>
        <notations>
          <articulations>
            <staccatissimo/>
          </articulations>
        </notations>
      </note>
      <note>
        <pitch>
          <step>B</step>
          <alter>-1</alter>
          <octave>3</octave>
        </pitch>
        <duration>32</duration>
        <voice>3</voice>
        <type>eighth</type>
        <notehead>normal</notehead>
        <staff>2</staff>
        <beam number="1">end</beam>
        <notations>
          <articulations>
            <staccatissimo/>
          </articulations>
        </notations>
      </note>
      <note>
        <chord/>
        <pitch>
          <step>E</step>
          <octave>4</octave>
        </pitch>
        <duration>32</duration>
        <voice>3</voice>
        <type>eighth</type>
        <notehead>normal</notehead>
        <staff>2</staff>
        <beam number="1">end</beam>
        <notations>
          <articulations>
            <staccatissimo/>
          </articulations>
        </notations>
      </note>
    </measure>
    <measure number="11">
      <attributes/>
      <note>
        <pitch>
          <step>F</step>
          <octave>5</octave>
        </pitch>
        <duration>16</duration>
        <voice>1</voice>
        <type>16th</type>
        <notehead>normal</notehead>
        <staff>1</staff>
        <beam number="1">begin</beam>
      </note>
      <note>
        <pitch>
          <step>E</step>
          <octave>5</octave>
        </pitch>
        <duration>16</duration>
        <voice>1</voice>
        <type>16th</type>
        <notehead>normal</notehead>
        <staff>1</staff>
        <beam number="1">continue</beam>
      </note>
      <note>
        <pitch>
          <step>D</step>
          <octave>5</octave>
        </pitch>
        <duration>16</duration>
        <voice>1</voice>
        <type>16th</type>
        <notehead>normal</notehead>
        <staff>1</staff>
        <beam number="1">continue</beam>
      </note>
      <note>
        <pitch>
          <step>F</step>
          <octave>5</octave>
        </pitch>
        <duration>16</duration>
        <voice>1</voice>
        <type>16th</type>
        <notehead>normal</notehead>
        <staff>1</staff>
        <beam number="1">end</beam>
      </note>
      <note>
        <pitch>
          <step>E</step>
          <octave>5</octave>
        </pitch>
        <duration>16</duration>
        <voice>1</voice>
        <type>16th</type>
        <notehead>normal</notehead>
        <staff>1</staff>
        <beam number="1">begin</beam>
      </note>
      <note>
        <pitch>
          <step>D</step>
          <octave>5</octave>
        </pitch>
        <duration>16</duration>
        <voice>1</voice>
        <type>16th</type>
        <notehead>normal</notehead>
        <staff>1</staff>
        <beam number="1">continue</beam>
      </note>
      <note>
        <pitch>
          <step>C</step>
          <alter>1</alter>
          <octave>5</octave>
        </pitch>
        <duration>16</duration>
        <voice>1</voice>
        <type>16th</type>
        <accidental>sharp</accidental>
        <notehead>normal</notehead>
        <staff>1</staff>
        <beam number="1">continue</beam>
      </note>
      <note>
        <pitch>
          <step>E</step>
          <octave>5</octave>
        </pitch>
        <duration>16</duration>
        <voice>1</voice>
        <type>16th</type>
        <notehead>normal</notehead>
        <staff>1</staff>
        <beam number="1">end</beam>
      </note>
      <backup>
        <duration>128</duration>
      </backup>
      <attributes/>
      <note>
        <pitch>
          <step>A</step>
          <octave>3</octave>
        </pitch>
        <duration>32</duration>
        <voice>3</voice>
        <type>eighth</type>
        <notehead>normal</notehead>
        <staff>2</staff>
        <beam number="1">begin</beam>
        <notations>
          <articulations>
            <staccatissimo/>
          </articulations>
        </notations>
      </note>
      <note>
        <pitch>
          <step>D</step>
          <octave>4</octave>
        </pitch>
        <duration>32</duration>
        <voice>3</voice>
        <type>eighth</type>
        <notehead>normal</notehead>
        <staff>2</staff>
        <beam number="1">end</beam>
        <notations>
          <articulations>
            <staccatissimo/>
          </articulations>
        </notations>
      </note>
      <note>
        <chord/>
        <pitch>
          <step>F</step>
          <octave>4</octave>
        </pitch>
        <duration>32</duration>
        <voice>3</voice>
        <type>eighth</type>
        <notehead>normal</notehead>
        <staff>2</staff>
        <beam number="1">end</beam>
        <notations>
          <articulations>
            <staccatissimo/>
          </articulations>
        </notations>
      </note>
      <note>
        <pitch>
          <step>A</step>
          <octave>3</octave>
        </pitch>
        <duration>32</duration>
        <voice>3</voice>
        <type>eighth</type>
        <notehead>normal</notehead>
        <staff>2</staff>
        <beam number="1">begin</beam>
        <notations>
          <articulations>
            <staccatissimo/>
          </articulations>
        </notations>
      </note>
      <note>
        <pitch>
          <step>E</step>
          <octave>4</octave>
        </pitch>
        <duration>32</duration>
        <voice>3</voice>
        <type>eighth</type>
        <notehead>normal</notehead>
        <staff>2</staff>
        <beam number="1">end</beam>
        <notations>
          <articulations>
            <staccatissimo/>
          </articulations>
        </notations>
      </note>
      <note>
        <chord/>
        <pitch>
          <step>G</step>
          <octave>4</octave>
        </pitch>
        <duration>32</duration>
        <voice>3</voice>
        <type>eighth</type>
        <notehead>normal</notehead>
        <staff>2</staff>
        <beam number="1">end</beam>
        <notations>
          <articulations>
            <staccatissimo/>
          </articulations>
        </notations>
      </note>
    </measure>
    <measure number="12">
      <attributes/>
      <note>
        <pitch>
          <step>D</step>
          <octave>5</octave>
        </pitch>
        <duration>16</duration>
        <voice>1</voice>
        <type>16th</type>
        <notehead>normal</notehead>
        <staff>1</staff>
        <beam number="1">begin</beam>
      </note>
      <note>
        <pitch>
          <step>F</step>
          <octave>5</octave>
        </pitch>
        <duration>16</duration>
        <voice>1</voice>
        <type>16th</type>
        <notehead>normal</notehead>
        <staff>1</staff>
        <beam number="1">continue</beam>
      </note>
      <note>
        <pitch>
          <step>A</step>
          <octave>5</octave>
        </pitch>
        <duration>16</duration>
        <voice>1</voice>
        <type>16th</type>
        <notehead>normal</notehead>
        <staff>1</staff>
        <beam number="1">continue</beam>
      </note>
      <note>
        <pitch>
          <step>C</step>
          <alter>1</alter>
          <octave>6</octave>
        </pitch>
        <duration>16</duration>
        <voice>1</voice>
        <type>16th</type>
        <accidental>sharp</accidental>
        <notehead>normal</notehead>
        <staff>1</staff>
        <beam number="1">end</beam>
      </note>
      <note>
        <pitch>
          <step>D</step>
          <octave>6</octave>
        </pitch>
        <duration>64</duration>
        <voice>1</voice>
        <type>quarter</type>
        <notehead>normal</notehead>
        <staff>1</staff>
        <notations>
          <articulations>
            <tenuto/>
          </articulations>
        </notations>
      </note>
      <backup>
        <duration>128</duration>
      </backup>
      <attributes/>
      <note>
        <pitch>
          <step>D</step>
          <octave>3</octave>
        </pitch>
        <duration>32</duration>
        <voice>3</voice>
        <type>eighth</type>
        <notehead>normal</notehead>
        <staff>2</staff>
        <beam number="1">begin</beam>
        <notations>
          <articulations>
            <staccatissimo/>
          </articulations>
        </notations>
      </note>
      <note>
        <pitch>
          <step>F</step>
          <octave>3</octave>
        </pitch>
        <duration>32</duration>
        <voice>3</voice>
        <type>eighth</type>
        <notehead>normal</notehead>
        <staff>2</staff>
        <beam number="1">end</beam>
        <notations>
          <articulations>
            <staccatissimo/>
          </articulations>
        </notations>
      </note>
      <note>
        <chord/>
        <pitch>
          <step>A</step>
          <octave>3</octave>
        </pitch>
        <duration>32</duration>
        <voice>3</voice>
        <type>eighth</type>
        <notehead>normal</notehead>
        <staff>2</staff>
        <beam number="1">end</beam>
        <notations>
          <articulations>
            <staccatissimo/>
          </articulations>
        </notations>
      </note>
      <note>
        <chord/>
        <pitch>
          <step>D</step>
          <octave>4</octave>
        </pitch>
        <duration>32</duration>
        <voice>3</voice>
        <type>eighth</type>
        <notehead>normal</notehead>
        <staff>2</staff>
        <beam number="1">end</beam>
        <notations>
          <articulations>
            <staccatissimo/>
          </articulations>
        </notations>
      </note>
      <note>
        <pitch>
          <step>D</step>
          <octave>3</octave>
        </pitch>
        <duration>32</duration>
        <voice>3</voice>
        <type>eighth</type>
        <notehead>normal</notehead>
        <staff>2</staff>
        <beam number="1">begin</beam>
        <notations>
          <articulations>
            <staccatissimo/>
          </articulations>
        </notations>
      </note>
      <note>
        <pitch>
          <step>F</step>
          <octave>3</octave>
        </pitch>
        <duration>32</duration>
        <voice>3</voice>
        <type>eighth</type>
        <notehead>normal</notehead>
        <staff>2</staff>
        <beam number="1">end</beam>
        <notations>
          <articulations>
            <staccatissimo/>
          </articulations>
        </notations>
      </note>
      <note>
        <chord/>
        <pitch>
          <step>A</step>
          <octave>3</octave>
        </pitch>
        <duration>32</duration>
        <voice>3</voice>
        <type>eighth</type>
        <notehead>normal</notehead>
        <staff>2</staff>
        <beam number="1">end</beam>
        <notations>
          <articulations>
            <staccatissimo/>
          </articulations>
        </notations>
      </note>
      <note>
        <chord/>
        <pitch>
          <step>D</step>
          <octave>4</octave>
        </pitch>
        <duration>32</duration>
        <voice>3</voice>
        <type>eighth</type>
        <notehead>normal</notehead>
        <staff>2</staff>
        <beam number="1">end</beam>
        <notations>
          <articulations>
            <staccatissimo/>
          </articulations>
        </notations>
      </note>
    </measure>
    <measure number="13">
      <attributes/>
      <note>
        <pitch>
          <step>A</step>
          <octave>5</octave>
        </pitch>
        <duration>32</duration>
        <voice>1</voice>
        <type>eighth</type>
        <notehead>normal</notehead>
        <staff>1</staff>
        <beam number="1">begin</beam>
        <notations>
          <articulations>
            <staccatissimo/>
          </articulations>
        </notations>
      </note>
      <note>
        <pitch>
          <step>A</step>
          <octave>5</octave>
        </pitch>
        <duration>16</duration>
        <voice>1</voice>
        <type>16th</type>
        <notehead>normal</notehead>
        <staff>1</staff>
        <beam number="1">continue</beam>
      </note>
      <note>
        <pitch>
          <step>G</step>
          <octave>5</octave>
        </pitch>
        <duration>16</duration>
        <voice>1</voice>
        <type>16th</type>
        <notehead>normal</notehead>
        <staff>1</staff>
        <beam number="1">end</beam>
      </note>
      <note>
        <pitch>
          <step>F</step>
          <octave>5</octave>
        </pitch>
        <duration>16</duration>
        <voice>1</voice>
        <type>16th</type>
        <notehead>normal</notehead>
        <staff>1</staff>
        <beam number="1">begin</beam>
      </note>
      <note>
        <pitch>
          <step>G</step>
          <octave>5</octave>
        </pitch>
        <duration>16</duration>
        <voice>1</voice>
        <type>16th</type>
        <notehead>normal</notehead>
        <staff>1</staff>
        <beam number="1">continue</beam>
      </note>
      <note>
        <pitch>
          <step>A</step>
          <octave>5</octave>
        </pitch>
        <duration>16</duration>
        <voice>1</voice>
        <type>16th</type>
        <notehead>normal</notehead>
        <staff>1</staff>
        <beam number="1">continue</beam>
      </note>
      <note>
        <pitch>
          <step>F</step>
          <octave>5</octave>
        </pitch>
        <duration>16</duration>
        <voice>1</voice>
        <type>16th</type>
        <notehead>normal</notehead>
        <staff>1</staff>
        <beam number="1">end</beam>
      </note>
      <backup>
        <duration>128</duration>
      </backup>
      <attributes/>
      <note>
        <pitch>
          <step>D</step>
          <octave>3</octave>
        </pitch>
        <duration>32</duration>
        <voice>3</voice>
        <type>eighth</type>
        <notehead>normal</notehead>
        <staff>2</staff>
        <beam number="1">begin</beam>
        <notations>
          <articulations>
            <staccatissimo/>
          </articulations>
        </notations>
      </note>
      <note>
        <pitch>
          <step>A</step>
          <octave>3</octave>
        </pitch>
        <duration>32</duration>
        <voice>3</voice>
        <type>eighth</type>
        <notehead>normal</notehead>
        <staff>2</staff>
        <beam number="1">end</beam>
        <notations>
          <articulations>
            <staccatissimo/>
          </articulations>
        </notations>
      </note>
      <note>
        <chord/>
        <pitch>
          <step>C</step>
          <octave>4</octave>
        </pitch>
        <duration>32</duration>
        <voice>3</voice>
        <type>eighth</type>
        <notehead>normal</notehead>
        <staff>2</staff>
        <beam number="1">end</beam>
        <notations>
          <articulations>
            <staccatissimo/>
          </articulations>
        </notations>
      </note>
      <note>
        <pitch>
          <step>D</step>
          <octave>3</octave>
        </pitch>
        <duration>32</duration>
        <voice>3</voice>
        <type>eighth</type>
        <notehead>normal</notehead>
        <staff>2</staff>
        <beam number="1">begin</beam>
        <notations>
          <articulations>
            <staccatissimo/>
          </articulations>
        </notations>
      </note>
      <note>
        <pitch>
          <step>A</step>
          <octave>3</octave>
        </pitch>
        <duration>32</duration>
        <voice>3</voice>
        <type>eighth</type>
        <notehead>normal</notehead>
        <staff>2</staff>
        <beam number="1">end</beam>
        <notations>
          <articulations>
            <staccatissimo/>
          </articulations>
        </notations>
      </note>
      <note>
        <chord/>
        <pitch>
          <step>C</step>
          <octave>4</octave>
        </pitch>
        <duration>32</duration>
        <voice>3</voice>
        <type>eighth</type>
        <notehead>normal</notehead>
        <staff>2</staff>
        <beam number="1">end</beam>
        <notations>
          <articulations>
            <staccatissimo/>
          </articulations>
        </notations>
      </note>
    </measure>
    <measure number="14">
      <attributes/>
      <note>
        <pitch>
          <step>G</step>
          <octave>5</octave>
        </pitch>
        <duration>32</duration>
        <voice>1</voice>
        <type>eighth</type>
        <notehead>normal</notehead>
        <staff>1</staff>
        <beam number="1">begin</beam>
        <notations>
          <articulations>
            <staccatissimo/>
          </articulations>
        </notations>
      </note>
      <note>
        <pitch>
          <step>G</step>
          <octave>5</octave>
        </pitch>
        <duration>16</duration>
        <voice>1</voice>
        <type>16th</type>
        <notehead>normal</notehead>
        <staff>1</staff>
        <beam number="1">continue</beam>
      </note>
      <note>
        <pitch>
          <step>F</step>
          <octave>5</octave>
        </pitch>
        <duration>16</duration>
        <voice>1</voice>
        <type>16th</type>
        <notehead>normal</notehead>
        <staff>1</staff>
        <beam number="1">end</beam>
      </note>
      <note>
        <pitch>
          <step>E</step>
          <octave>5</octave>
        </pitch>
        <duration>48</duration>
        <voice>1</voice>
        <type>eighth</type>
        <dot/>
        <notehead>normal</notehead>
        <staff>1</staff>
        <beam number="1">begin</beam>
      </note>
      <note>
        <pitch>
          <step>G</step>
          <octave>5</octave>
        </pitch>
        <duration>16</duration>
        <voice>1</voice>
        <type>16th</type>
        <notehead>normal</notehead>
        <staff>1</staff>
        <beam number="1">end</beam>
      </note>
      <backup>
        <duration>128</duration>
      </backup>
      <attributes/>
      <note>
        <pitch>
          <step>G</step>
          <octave>3</octave>
        </pitch>
        <duration>32</duration>
        <voice>3</voice>
        <type>eighth</type>
        <notehead>normal</notehead>
        <staff>2</staff>
        <beam number="1">begin</beam>
        <notations>
          <articulations>
            <staccatissimo/>
          </articulations>
        </notations>
      </note>
      <note>
        <pitch>
          <step>B</step>
          <alter>-1</alter>
          <octave>3</octave>
        </pitch>
        <duration>32</duration>
        <voice>3</voice>
        <type>eighth</type>
        <notehead>normal</notehead>
        <staff>2</staff>
        <beam number="1">end</beam>
        <notations>
          <articulations>
            <staccatissimo/>
          </articulations>
        </notations>
      </note>
      <note>
        <chord/>
        <pitch>
          <step>E</step>
          <octave>4</octave>
        </pitch>
        <duration>32</duration>
        <voice>3</voice>
        <type>eighth</type>
        <notehead>normal</notehead>
        <staff>2</staff>
        <beam number="1">end</beam>
        <notations>
          <articulations>
            <staccatissimo/>
          </articulations>
        </notations>
      </note>
      <note>
        <pitch>
          <step>G</step>
          <octave>3</octave>
        </pitch>
        <duration>32</duration>
        <voice>3</voice>
        <type>eighth</type>
        <notehead>normal</notehead>
        <staff>2</staff>
        <beam number="1">begin</beam>
        <notations>
          <articulations>
            <staccatissimo/>
          </articulations>
        </notations>
      </note>
      <note>
        <pitch>
          <step>B</step>
          <alter>-1</alter>
          <octave>3</octave>
        </pitch>
        <duration>32</duration>
        <voice>3</voice>
        <type>eighth</type>
        <notehead>normal</notehead>
        <staff>2</staff>
        <beam number="1">end</beam>
        <notations>
          <articulations>
            <staccatissimo/>
          </articulations>
        </notations>
      </note>
      <note>
        <chord/>
        <pitch>
          <step>E</step>
          <octave>4</octave>
        </pitch>
        <duration>32</duration>
        <voice>3</voice>
        <type>eighth</type>
        <notehead>normal</notehead>
        <staff>2</staff>
        <beam number="1">end</beam>
        <notations>
          <articulations>
            <staccatissimo/>
          </articulations>
        </notations>
      </note>
    </measure>
    <measure number="15">
      <attributes/>
      <note>
        <pitch>
          <step>F</step>
          <octave>5</octave>
        </pitch>
        <duration>16</duration>
        <voice>1</voice>
        <type>16th</type>
        <notehead>normal</notehead>
        <staff>1</staff>
        <beam number="1">begin</beam>
      </note>
      <note>
        <pitch>
          <step>E</step>
          <octave>5</octave>
        </pitch>
        <duration>16</duration>
        <voice>1</voice>
        <type>16th</type>
        <notehead>normal</notehead>
        <staff>1</staff>
        <beam number="1">continue</beam>
      </note>
      <note>
        <pitch>
          <step>D</step>
          <octave>5</octave>
        </pitch>
        <duration>16</duration>
        <voice>1</voice>
        <type>16th</type>
        <notehead>normal</notehead>
        <staff>1</staff>
        <beam number="1">continue</beam>
      </note>
      <note>
        <pitch>
          <step>F</step>
          <octave>5</octave>
        </pitch>
        <duration>16</duration>
        <voice>1</voice>
        <type>16th</type>
        <notehead>normal</notehead>
        <staff>1</staff>
        <beam number="1">end</beam>
      </note>
      <note>
        <pitch>
          <step>E</step>
          <octave>5</octave>
        </pitch>
        <duration>16</duration>
        <voice>1</voice>
        <type>16th</type>
        <notehead>normal</notehead>
        <staff>1</staff>
        <beam number="1">begin</beam>
      </note>
      <note>
        <pitch>
          <step>D</step>
          <octave>5</octave>
        </pitch>
        <duration>16</duration>
        <voice>1</voice>
        <type>16th</type>
        <notehead>normal</notehead>
        <staff>1</staff>
        <beam number="1">continue</beam>
      </note>
      <note>
        <pitch>
          <step>C</step>
          <octave>5</octave>
        </pitch>
        <duration>16</duration>
        <voice>1</voice>
        <type>16th</type>
        <notehead>normal</notehead>
        <staff>1</staff>
        <beam number="1">continue</beam>
      </note>
      <note>
        <pitch>
          <step>E</step>
          <octave>5</octave>
        </pitch>
        <duration>16</duration>
        <voice>1</voice>
        <type>16th</type>
        <notehead>normal</notehead>
        <staff>1</staff>
        <beam number="1">end</beam>
      </note>
      <backup>
        <duration>128</duration>
      </backup>
      <attributes/>
      <note>
        <pitch>
          <step>A</step>
          <octave>3</octave>
        </pitch>
        <duration>32</duration>
        <voice>3</voice>
        <type>eighth</type>
        <notehead>normal</notehead>
        <staff>2</staff>
        <beam number="1">begin</beam>
        <notations>
          <articulations>
            <staccatissimo/>
          </articulations>
        </notations>
      </note>
      <note>
        <pitch>
          <step>D</step>
          <octave>4</octave>
        </pitch>
        <duration>32</duration>
        <voice>3</voice>
        <type>eighth</type>
        <notehead>normal</notehead>
        <staff>2</staff>
        <beam number="1">end</beam>
        <notations>
          <articulations>
            <staccatissimo/>
          </articulations>
        </notations>
      </note>
      <note>
        <chord/>
        <pitch>
          <step>F</step>
          <octave>4</octave>
        </pitch>
        <duration>32</duration>
        <voice>3</voice>
        <type>eighth</type>
        <notehead>normal</notehead>
        <staff>2</staff>
        <beam number="1">end</beam>
        <notations>
          <articulations>
            <staccatissimo/>
          </articulations>
        </notations>
      </note>
      <note>
        <pitch>
          <step>A</step>
          <octave>3</octave>
        </pitch>
        <duration>32</duration>
        <voice>3</voice>
        <type>eighth</type>
        <notehead>normal</notehead>
        <staff>2</staff>
        <beam number="1">begin</beam>
        <notations>
          <articulations>
            <staccatissimo/>
          </articulations>
        </notations>
      </note>
      <note>
        <pitch>
          <step>E</step>
          <octave>4</octave>
        </pitch>
        <duration>32</duration>
        <voice>3</voice>
        <type>eighth</type>
        <notehead>normal</notehead>
        <staff>2</staff>
        <beam number="1">end</beam>
        <notations>
          <articulations>
            <staccatissimo/>
          </articulations>
        </notations>
      </note>
      <note>
        <chord/>
        <pitch>
          <step>G</step>
          <octave>4</octave>
        </pitch>
        <duration>32</duration>
        <voice>3</voice>
        <type>eighth</type>
        <notehead>normal</notehead>
        <staff>2</staff>
        <beam number="1">end</beam>
        <notations>
          <articulations>
            <staccatissimo/>
          </articulations>
        </notations>
      </note>
    </measure>
    <measure number="16">
      <attributes/>
      <note>
        <pitch>
          <step>D</step>
          <octave>5</octave>
        </pitch>
        <duration>32</duration>
        <voice>1</voice>
        <type>eighth</type>
        <notehead>normal</notehead>
        <staff>1</staff>
      </note>
      <note>
        <rest/>
        <duration>32</duration>
        <voice>1</voice>
        <type>eighth</type>
        <staff>1</staff>
      </note>
      <note>
        <pitch>
          <step>D</step>
          <octave>5</octave>
        </pitch>
        <duration>64</duration>
        <voice>1</voice>
        <type>quarter</type>
        <notehead>normal</notehead>
        <staff>1</staff>
        <notations>
          <articulations>
            <accent/>
          </articulations>
        </notations>
      </note>
      <backup>
        <duration>128</duration>
      </backup>
      <attributes/>
      <note>
        <pitch>
          <step>D</step>
          <octave>3</octave>
        </pitch>
        <duration>32</duration>
        <voice>3</voice>
        <type>eighth</type>
        <notehead>normal</notehead>
        <staff>2</staff>
        <beam number="1">begin</beam>
        <notations>
          <articulations>
            <staccatissimo/>
          </articulations>
        </notations>
      </note>
      <note>
        <pitch>
          <step>F</step>
          <octave>3</octave>
        </pitch>
        <duration>32</duration>
        <voice>3</voice>
        <type>eighth</type>
        <notehead>normal</notehead>
        <staff>2</staff>
        <beam number="1">end</beam>
        <notations>
          <articulations>
            <staccatissimo/>
          </articulations>
        </notations>
      </note>
      <note>
        <chord/>
        <pitch>
          <step>A</step>
          <octave>3</octave>
        </pitch>
        <duration>32</duration>
        <voice>3</voice>
        <type>eighth</type>
        <notehead>normal</notehead>
        <staff>2</staff>
        <beam number="1">end</beam>
        <notations>
          <articulations>
            <staccatissimo/>
          </articulations>
        </notations>
      </note>
      <note>
        <chord/>
        <pitch>
          <step>D</step>
          <octave>4</octave>
        </pitch>
        <duration>32</duration>
        <voice>3</voice>
        <type>eighth</type>
        <notehead>normal</notehead>
        <staff>2</staff>
        <beam number="1">end</beam>
        <notations>
          <articulations>
            <staccatissimo/>
          </articulations>
        </notations>
      </note>
      <note>
        <pitch>
          <step>D</step>
          <octave>3</octave>
        </pitch>
        <duration>64</duration>
        <voice>3</voice>
        <type>quarter</type>
        <notehead>normal</notehead>
        <staff>2</staff>
        <notations>
          <articulations>
            <accent/>
          </articulations>
        </notations>
      </note>
    </measure>
    <measure number="17">
      <attributes/>
      <note>
        <rest/>
        <duration>128</duration>
        <voice>1</voice>
        <type>whole</type>
        <staff>1</staff>
      </note>
      <backup>
        <duration>128</duration>
      </backup>
      <attributes/>
      <note>
        <rest/>
        <duration>128</duration>
        <voice>3</voice>
        <type>whole</type>
        <staff>2</staff>
      </note>
      <barline location="right">
        <bar-style>light-heavy</bar-style>
      </barline>
    </measure>
  </part>
</score-partwise>